<svg width="16" height="16" viewBox="0 0 16 16" fill="none" xmlns="http://www.w3.org/2000/svg">
<g clip-path="url(#clip0_989_3934)">
<path fill-rule="evenodd" clip-rule="evenodd" d="M8.00065 1.8335C4.59489 1.8335 1.83398 4.59441 1.83398 8.00016C1.83398 8.98753 2.06567 9.91936 2.47718 10.7456C2.64235 11.0772 2.70595 11.4737 2.60174 11.8631L2.20467 13.3472C2.13174 13.6197 2.38109 13.8691 2.65365 13.7961L4.13767 13.3991C4.52714 13.2949 4.92365 13.3585 5.25526 13.5236C6.08145 13.9351 7.01328 14.1668 8.00065 14.1668C11.4064 14.1668 14.1673 11.4059 14.1673 8.00016C14.1673 4.59441 11.4064 1.8335 8.00065 1.8335ZM0.833984 8.00016C0.833984 4.04212 4.04261 0.833496 8.00065 0.833496C11.9587 0.833496 15.1673 4.04212 15.1673 8.00016C15.1673 11.9582 11.9587 15.1668 8.00065 15.1668C6.85511 15.1668 5.771 14.8977 4.80942 14.4187C4.66592 14.3473 4.51941 14.3321 4.39614 14.3651L2.91212 14.7622C1.89623 15.034 0.966833 14.1046 1.23865 13.0887L1.63572 11.6047C1.6687 11.4814 1.65354 11.3349 1.58207 11.1914C1.10312 10.2298 0.833984 9.1457 0.833984 8.00016ZM4.83398 7.00016C4.83398 6.72402 5.05784 6.50016 5.33398 6.50016H10.6673C10.9435 6.50016 11.1673 6.72402 11.1673 7.00016C11.1673 7.2763 10.9435 7.50016 10.6673 7.50016H5.33398C5.05784 7.50016 4.83398 7.2763 4.83398 7.00016ZM4.83398 9.3335C4.83398 9.05735 5.05784 8.8335 5.33398 8.8335H9.00065C9.27679 8.8335 9.50065 9.05735 9.50065 9.3335C9.50065 9.60964 9.27679 9.8335 9.00065 9.8335H5.33398C5.05784 9.8335 4.83398 9.60964 4.83398 9.3335Z" fill="#282828"/>
</g>
<defs>
<clipPath id="clip0_989_3934">
<rect width="16" height="16" fill="white"/>
</clipPath>
</defs>
</svg>
