<svg width="249" height="158" viewBox="0 0 249 158" fill="none" xmlns="http://www.w3.org/2000/svg">
<path d="M82.9225 114.007C82.9225 119.995 81.8431 125.599 79.678 130.812C77.5129 136.024 74.5541 140.588 70.8016 144.51C67.0428 148.431 62.6491 151.517 57.6204 153.77C52.5853 156.022 47.2011 157.154 41.4613 157.154C35.7214 157.154 30.3308 156.028 25.3022 153.77C20.2671 151.517 15.8734 148.431 12.1209 144.51C8.36207 140.588 5.40329 136.024 3.24451 130.812C1.07938 125.599 0 119.995 0 114.007C0 108.019 1.07938 102.396 3.24451 97.1496C5.40329 91.897 8.36207 87.3133 12.1209 83.3987C15.8797 79.4774 20.2735 76.3907 25.3022 74.1386C30.3308 71.8866 35.7214 70.7539 41.4613 70.7539C47.2011 70.7539 52.5853 71.8799 57.6204 74.1386C62.6491 76.3974 67.0492 79.484 70.8016 83.3987C74.5604 87.3199 77.5192 91.9036 79.678 97.1496C81.8368 102.402 82.9225 108.019 82.9225 114.007ZM68.5666 114.007C68.5666 109.722 67.8555 105.741 66.4396 102.084C65.0237 98.4214 63.0872 95.2287 60.6427 92.4931C58.1982 89.7575 55.3283 87.6114 52.0329 86.0614C48.7376 84.5115 45.2074 83.7299 41.4549 83.7299C37.7024 83.7299 34.1722 84.5048 30.8769 86.0614C27.5816 87.6114 24.7117 89.7575 22.2672 92.4931C19.8227 95.2287 17.8925 98.428 16.4702 102.084C15.0543 105.747 14.3432 109.722 14.3432 114.007C14.3432 118.293 15.0543 122.287 16.4702 125.983C17.8861 129.679 19.8163 132.898 22.2672 135.634C24.7117 138.369 27.5816 140.515 30.8769 142.065C34.1722 143.615 37.6961 144.397 41.4549 144.397C45.2137 144.397 48.7376 143.622 52.0329 142.065C55.3283 140.515 58.1982 138.369 60.6427 135.634C63.0872 132.898 65.0174 129.686 66.4396 125.983C67.8555 122.287 68.5666 118.293 68.5666 114.007Z" fill="#CFCFCF"/>
<path d="M172.272 114.007C172.272 119.995 171.193 125.599 169.028 130.812C166.862 136.024 163.904 140.588 160.151 144.51C156.392 148.431 151.999 151.517 146.97 153.77C141.935 156.022 136.551 157.154 130.811 157.154C125.071 157.154 119.68 156.028 114.652 153.77C109.617 151.517 105.223 148.431 101.471 144.51C97.7117 140.588 94.7529 136.024 92.5942 130.812C90.429 125.599 89.3496 119.995 89.3496 114.007C89.3496 108.019 90.429 102.396 92.5942 97.1496C94.7529 91.897 97.7117 87.3133 101.471 83.3987C105.229 79.4774 109.623 76.3907 114.652 74.1386C119.68 71.8866 125.071 70.7539 130.811 70.7539C136.551 70.7539 141.935 71.8799 146.97 74.1386C151.999 76.3974 156.399 79.484 160.151 83.3987C163.91 87.3199 166.869 91.9036 169.028 97.1496C171.186 102.402 172.272 108.019 172.272 114.007ZM157.916 114.007C157.916 109.722 157.205 105.741 155.789 102.084C154.373 98.4214 152.437 95.2287 149.992 92.4931C147.548 89.7575 144.678 87.6114 141.383 86.0614C138.087 84.5115 134.557 83.7299 130.805 83.7299C127.052 83.7299 123.522 84.5048 120.227 86.0614C116.931 87.6114 114.061 89.7575 111.617 92.4931C109.172 95.2287 107.242 98.428 105.82 102.084C104.404 105.747 103.693 109.722 103.693 114.007C103.693 118.293 104.404 122.287 105.82 125.983C107.236 129.679 109.166 132.898 111.617 135.634C114.061 138.369 116.931 140.515 120.227 142.065C123.522 143.615 127.046 144.397 130.805 144.397C134.563 144.397 138.087 143.622 141.383 142.065C144.678 140.515 147.548 138.369 149.992 135.634C152.437 132.898 154.367 129.686 155.789 125.983C157.205 122.287 157.916 118.293 157.916 114.007Z" fill="#CFCFCF"/>
<path d="M61.5196 113.947C61.5196 126.009 51.7479 135.68 40.0207 134.832C30.1284 134.117 22.1091 125.758 21.4298 115.431C20.6234 103.197 29.8934 93.0098 41.4556 93.0098C43.4874 93.0098 45.4494 93.3277 47.297 93.9106C47.8494 94.0828 48.0335 94.7783 47.6843 95.2552C46.4208 96.9774 45.7605 99.2096 46.0335 101.607C46.4843 105.515 49.5066 108.675 53.2527 109.159C55.5639 109.457 57.7036 108.768 59.3608 107.443C59.818 107.079 60.4846 107.277 60.6497 107.847C61.2148 109.775 61.5132 111.821 61.5132 113.941L61.5196 113.947Z" fill="#CFCFCF"/>
<path d="M150.876 113.947C150.876 126.009 141.104 135.68 129.377 134.832C119.485 134.117 111.466 125.758 110.786 115.431C109.98 103.197 119.25 93.0098 130.812 93.0098C132.844 93.0098 134.806 93.3277 136.653 93.9106C137.206 94.0828 137.39 94.7783 137.041 95.2552C135.777 96.9774 135.117 99.2096 135.39 101.607C135.841 105.515 138.863 108.675 142.609 109.159C144.92 109.457 147.06 108.768 148.717 107.443C149.174 107.079 149.841 107.277 150.006 107.847C150.571 109.775 150.87 111.821 150.87 113.941L150.876 113.947Z" fill="#CFCFCF"/>
<path d="M175.134 49.612C176.776 41.719 179.377 39.6528 183.673 38.0578C186.771 36.8202 189.27 35.264 189.856 32.3313C190.493 29.1435 188.426 26.5429 185.366 25.9317C182.37 25.3332 179.233 26.7621 178.354 30.4982L169.301 28.69C171.288 19.7386 178.772 16.7913 186.932 18.4213C195.794 20.1913 201.177 26.1061 199.61 33.948C198.566 39.176 195.214 42.0202 190.509 43.6663C186.506 45.1209 184.504 46.8427 183.549 51.2929L183.409 51.9942L174.994 50.3133L175.134 49.612ZM176.515 65.6007C173.518 65.0022 171.579 62.0956 172.229 59.1756C172.751 56.2301 175.645 54.355 178.641 54.9535C181.447 55.5138 183.462 58.3694 182.876 61.3022C182.29 64.2349 179.32 66.161 176.515 65.6007Z" fill="#CFCFCF"/>
<path d="M207.035 67.91C211.331 62.4802 214.122 61.893 218.034 62.3195C220.889 62.5599 223.406 62.3252 224.983 60.2982C226.697 58.0949 226.11 55.3037 223.995 53.6581C221.924 52.0468 218.966 51.9387 216.855 54.47L210.598 49.6017C215.564 43.4914 222.444 44.1044 228.084 48.4927C234.209 53.2581 236.069 59.8689 231.852 65.2889C229.041 68.9023 225.373 69.7979 221.128 69.2537C217.495 68.8321 215.296 69.3851 212.852 72.4354L212.475 72.9201L206.658 68.3947L207.035 67.91ZM201.951 80.719C199.88 79.1077 199.508 76.1305 201.129 74.1378C202.662 72.0765 205.605 71.7488 207.676 73.3601C209.615 74.8686 210.065 77.836 208.488 79.8631C206.911 81.8901 203.89 82.2275 201.951 80.719Z" fill="#CFCFCF"/>
</svg>
