<svg width="16" height="16" viewBox="0 0 16 16" fill="none" xmlns="http://www.w3.org/2000/svg">
<path fill-rule="evenodd" clip-rule="evenodd" d="M8.00065 5.49984C6.61994 5.49984 5.50065 6.61913 5.50065 7.99984C5.50065 9.38055 6.61994 10.4998 8.00065 10.4998C9.38136 10.4998 10.5007 9.38055 10.5007 7.99984C10.5007 6.61913 9.38136 5.49984 8.00065 5.49984ZM6.50065 7.99984C6.50065 7.17141 7.17222 6.49984 8.00065 6.49984C8.82908 6.49984 9.50065 7.17141 9.50065 7.99984C9.50065 8.82826 8.82908 9.49984 8.00065 9.49984C7.17222 9.49984 6.50065 8.82826 6.50065 7.99984Z" fill="#282828"/>
<path fill-rule="evenodd" clip-rule="evenodd" d="M8.00065 2.1665C4.99123 2.1665 2.96418 3.9693 1.7877 5.49775L1.76648 5.5253C1.50041 5.87086 1.25536 6.18912 1.08911 6.56544C0.911081 6.96842 0.833984 7.40763 0.833984 7.99984C0.833984 8.59204 0.911081 9.03126 1.08911 9.43424C1.25536 9.81056 1.50041 10.1288 1.76648 10.4744L1.7877 10.5019C2.96418 12.0304 4.99123 13.8332 8.00065 13.8332C11.0101 13.8332 13.0371 12.0304 14.2136 10.5019L14.2348 10.4744C14.5009 10.1288 14.7459 9.81056 14.9122 9.43424C15.0902 9.03126 15.1673 8.59204 15.1673 7.99984C15.1673 7.40763 15.0902 6.96842 14.9122 6.56544C14.7459 6.18911 14.5009 5.87085 14.2348 5.52529L14.2136 5.49775C13.0371 3.9693 11.0101 2.1665 8.00065 2.1665ZM2.58013 6.1077C3.66641 4.69645 5.43422 3.1665 8.00065 3.1665C10.5671 3.1665 12.3349 4.69645 13.4212 6.1077C13.7136 6.48756 13.8848 6.71454 13.9975 6.96954C14.1028 7.20785 14.1673 7.49913 14.1673 7.99984C14.1673 8.50055 14.1028 8.79183 13.9975 9.03014C13.8848 9.28513 13.7136 9.51211 13.4212 9.89197C12.3349 11.3032 10.5671 12.8332 8.00065 12.8332C5.43422 12.8332 3.66641 11.3032 2.58013 9.89197C2.28774 9.51211 2.11647 9.28513 2.00382 9.03014C1.89854 8.79183 1.83398 8.50055 1.83398 7.99984C1.83398 7.49913 1.89854 7.20785 2.00382 6.96954C2.11647 6.71454 2.28774 6.48756 2.58013 6.1077Z" fill="#282828"/>
</svg>
