<svg width="200" height="22" viewBox="0 0 200 22" fill="none" xmlns="http://www.w3.org/2000/svg">
<g clip-path="url(#clip0_989_3929)">
<path d="M16.0025 21.6618H11.9321V21.6332C12.0984 20.9106 12.2372 19.9572 12.2372 19.2363V11.2067H3.7653V19.2363C3.7653 19.9589 3.90416 20.9123 4.07046 21.6332V21.6618H0V21.6332C0.166306 20.9106 0.2761 19.9572 0.2761 19.2363V2.88746C0.2761 2.1379 0.166306 1.18452 0 0.490549V0.461914H4.07046V0.490549C3.90416 1.18452 3.7653 2.13621 3.7653 2.88746V10.917H12.2372V2.88746C12.2372 2.13621 12.0984 1.21147 11.9321 0.519184V0.461914H16.0025V0.519184C15.8362 1.21316 15.7264 2.13621 15.7264 2.88746V19.2363C15.7264 19.9589 15.8378 20.9123 16.0025 21.6332V21.6618Z" fill="#282828"/>
<path d="M17.498 10.9471C17.498 6.81693 19.4921 2.54191 23.7838 0.896251C24.9188 0.463359 26.1088 0.26123 27.3004 0.26123C31.3983 0.26123 35.5237 2.68677 37.1012 7.30878C37.5436 8.57882 37.7664 9.93645 37.7664 11.2941C37.7664 15.5118 35.5786 19.642 31.2046 21.2876C30.0146 21.7492 28.7956 21.9513 27.633 21.9513C23.4253 21.9513 19.6035 19.1788 18.1633 14.9897C17.7209 13.7179 17.498 12.3317 17.498 10.9454V10.9471ZM30.0679 21.0569C30.6491 21.0569 31.203 20.971 31.7019 20.7688C33.9171 19.9031 34.9408 17.3899 34.9408 14.3563C34.9408 12.6803 34.6356 10.8898 34.0269 9.12793C32.0894 3.55256 28.1013 1.12701 25.0561 1.12701C24.4199 1.12701 23.8661 1.21292 23.3397 1.41505C21.1519 2.2522 20.2381 4.79396 20.2381 7.65408C20.2381 9.41596 20.5981 11.3227 21.1794 12.997C22.9506 18.1378 26.8822 21.0552 30.0663 21.0552L30.0679 21.0569Z" fill="#282828"/>
<path d="M45.8759 16.9253L48.5061 9.12649L46.4571 2.80155C46.2085 2.10758 45.8484 1.24179 45.4609 0.635408L45.3786 0.461914H49.6702C49.7251 1.18452 49.8914 2.10758 50.1417 2.80155L54.5997 16.9253L59.4177 2.80155C59.6389 2.10758 59.8327 1.18452 59.8892 0.461914H60.8031L60.7207 0.635408C60.3332 1.24179 59.9457 2.10926 59.7245 2.80155L53.329 21.6635H52.6363L48.6773 9.5897L44.5793 21.6635H43.8867L37.7124 2.80155C37.4637 2.10758 37.1036 1.24179 36.7161 0.635408L36.6338 0.461914H40.9255C40.9804 1.18452 41.1741 2.10758 41.3969 2.80155L45.8823 16.9253H45.8759Z" fill="#282828"/>
<path d="M67.4424 21.6618V21.6332C67.6087 20.9106 67.7185 19.9572 67.7185 19.2363V2.88746C67.7185 2.13621 67.6071 1.18284 67.4424 0.490549V0.461914H73.3955C79.4035 0.461914 83.4465 4.64934 83.4465 11.0619C83.4465 17.4744 79.4035 21.6618 73.3955 21.6618H67.4424ZM71.2077 0.749947V21.3738H71.3465C76.1646 21.3738 79.9573 17.3885 79.9573 11.0619C79.9573 4.73525 76.1646 0.749947 71.3465 0.749947H71.2077Z" fill="#282828"/>
<path d="M84.3047 10.9471C84.3047 6.81693 86.2987 2.54191 90.5904 0.896251C91.7255 0.463359 92.9155 0.26123 94.1071 0.26123C98.205 0.26123 102.33 2.68677 103.908 7.30878C104.35 8.57882 104.573 9.93645 104.573 11.2941C104.573 15.5118 102.385 19.642 98.0112 21.2876C96.8212 21.7492 95.6022 21.9513 94.4397 21.9513C90.232 21.9513 86.4102 19.1788 84.9699 14.9897C84.5275 13.7179 84.3047 12.3317 84.3047 10.9454V10.9471ZM96.8745 21.0569C97.4558 21.0569 98.0096 20.971 98.5085 20.7688C100.724 19.9031 101.747 17.3899 101.747 14.3563C101.747 12.6803 101.442 10.8898 100.834 9.12793C98.896 3.55256 94.9079 1.12701 91.8627 1.12701C91.2266 1.12701 90.6728 1.21292 90.1464 1.41505C87.9586 2.2522 87.0447 4.79396 87.0447 7.65408C87.0447 9.41596 87.4048 11.3227 87.986 12.997C89.7573 18.1378 93.6889 21.0552 96.8729 21.0552L96.8745 21.0569Z" fill="#282828"/>
<path d="M116.115 21.6618H112.045V21.6332C112.211 20.9106 112.321 19.9572 112.321 19.2363V2.88746C112.321 2.13621 112.21 1.18284 112.045 0.490549V0.461914H116.115V0.490549C115.949 1.18452 115.81 2.13621 115.81 2.88746V19.2363C115.81 19.9589 115.949 20.9123 116.115 21.6332V21.6618Z" fill="#282828"/>
<path d="M136.766 21.5771H125.303C125.249 21.5771 125.189 21.5535 125.127 21.5064C125.064 21.4592 125.031 21.3986 125.031 21.3228V0.677023C125.031 0.621438 125.062 0.559115 125.127 0.493423C125.189 0.427731 125.248 0.394043 125.303 0.394043H128.412C128.485 0.394043 128.551 0.427731 128.616 0.493423C128.679 0.559115 128.711 0.619753 128.711 0.677023V18.306H136.768C136.929 18.306 137.012 18.4104 137.012 18.6159V21.3244C137.012 21.4929 136.931 21.5788 136.768 21.5788L136.766 21.5771Z" fill="#282828"/>
<path d="M159.219 11.0006C159.219 12.5233 158.944 13.9483 158.394 15.274C157.843 16.5996 157.091 17.7601 156.136 18.7573C155.181 19.7545 154.063 20.5394 152.785 21.1121C151.504 21.6848 150.135 21.9728 148.675 21.9728C147.216 21.9728 145.845 21.6865 144.566 21.1121C143.286 20.5394 142.168 19.7545 141.214 18.7573C140.258 17.7601 139.506 16.5996 138.957 15.274C138.406 13.9483 138.132 12.5233 138.132 11.0006C138.132 9.47792 138.406 8.04786 138.957 6.71381C139.506 5.37808 140.258 4.21247 141.214 3.21699C142.17 2.21982 143.287 1.43489 144.566 0.862195C145.845 0.289498 147.216 0.00146484 148.675 0.00146484C150.135 0.00146484 151.504 0.287813 152.785 0.862195C154.063 1.43658 155.182 2.22151 156.136 3.21699C157.092 4.21416 157.845 5.37977 158.394 6.71381C158.943 8.04955 159.219 9.47792 159.219 11.0006ZM155.568 11.0006C155.568 9.91081 155.387 8.89849 155.027 7.9687C154.667 7.03722 154.175 6.22534 153.553 5.52968C152.931 4.83402 152.202 4.28827 151.364 3.89412C150.526 3.49997 149.628 3.30121 148.674 3.30121C147.719 3.30121 146.822 3.49829 145.984 3.89412C145.146 4.28827 144.416 4.83402 143.794 5.52968C143.173 6.22534 142.682 7.0389 142.32 7.9687C141.96 8.90017 141.779 9.91081 141.779 11.0006C141.779 12.0904 141.96 13.1061 142.32 14.046C142.68 14.9859 143.171 15.8045 143.794 16.5002C144.416 17.1959 145.146 17.7416 145.984 18.1358C146.822 18.5299 147.718 18.7287 148.674 18.7287C149.63 18.7287 150.526 18.5316 151.364 18.1358C152.202 17.7416 152.931 17.1959 153.553 16.5002C154.175 15.8045 154.666 14.9876 155.027 14.046C155.387 13.1061 155.568 12.0904 155.568 11.0006Z" fill="#282828"/>
<path d="M181.94 11.0006C181.94 12.5233 181.666 13.9483 181.115 15.274C180.565 16.5996 179.812 17.7601 178.858 18.7573C177.902 19.7545 176.785 20.5394 175.506 21.1121C174.226 21.6848 172.857 21.9728 171.397 21.9728C169.937 21.9728 168.567 21.6865 167.288 21.1121C166.007 20.5394 164.89 19.7545 163.936 18.7573C162.98 17.7601 162.228 16.5996 161.679 15.274C161.128 13.9483 160.854 12.5233 160.854 11.0006C160.854 9.47792 161.128 8.04786 161.679 6.71381C162.228 5.37808 162.98 4.21247 163.936 3.21699C164.892 2.21982 166.009 1.43489 167.288 0.862195C168.567 0.289498 169.937 0.00146484 171.397 0.00146484C172.857 0.00146484 174.226 0.287813 175.506 0.862195C176.785 1.43658 177.904 2.22151 178.858 3.21699C179.814 4.21416 180.566 5.37977 181.115 6.71381C181.664 8.04955 181.94 9.47792 181.94 11.0006ZM178.29 11.0006C178.29 9.91081 178.109 8.89849 177.749 7.9687C177.389 7.03722 176.896 6.22534 176.275 5.52968C175.653 4.83402 174.923 4.28827 174.085 3.89412C173.247 3.49997 172.35 3.30121 171.395 3.30121C170.441 3.30121 169.543 3.49829 168.705 3.89412C167.867 4.28827 167.138 4.83402 166.516 5.52968C165.894 6.22534 165.404 7.0389 165.042 7.9687C164.682 8.90017 164.501 9.91081 164.501 11.0006C164.501 12.0904 164.682 13.1061 165.042 14.046C165.402 14.9859 165.893 15.8045 166.516 16.5002C167.138 17.1959 167.867 17.7416 168.705 18.1358C169.543 18.5299 170.44 18.7287 171.395 18.7287C172.351 18.7287 173.247 18.5316 174.085 18.1358C174.923 17.7416 175.653 17.1959 176.275 16.5002C176.896 15.8045 177.387 14.9876 177.749 14.046C178.109 13.1061 178.29 12.0904 178.29 11.0006Z" fill="#282828"/>
<path d="M188.184 21.5064C188.121 21.5536 188.053 21.5772 187.981 21.5772H184.871C184.818 21.5772 184.758 21.5536 184.695 21.5064C184.632 21.4593 184.6 21.3986 184.6 21.3228V0.677106C184.6 0.62152 184.63 0.559197 184.695 0.493506C184.758 0.427814 184.816 0.394126 184.871 0.394126H187.981C188.053 0.394126 188.119 0.427814 188.184 0.493506C188.247 0.559197 188.279 0.619836 188.279 0.677106L188.252 8.06658L197.066 0.0841957C197.21 -0.0286594 197.345 -0.0185529 197.471 0.112831L199.419 2.36993C199.509 2.48279 199.499 2.59564 199.391 2.7085L190.713 10.578L199.932 19.379C200.022 19.4734 200.022 19.5862 199.932 19.7176L197.877 21.8888C197.768 22.0387 197.643 22.0387 197.499 21.8888L188.279 12.948V21.3245C188.279 21.4003 188.247 21.461 188.184 21.5081V21.5064Z" fill="#282828"/>
<path d="M153.778 10.9855C153.778 14.0528 151.294 16.5121 148.311 16.2965C145.796 16.1145 143.756 13.9888 143.584 11.3628C143.379 8.25175 145.736 5.66113 148.676 5.66113C149.193 5.66113 149.692 5.74198 150.162 5.89021C150.302 5.93401 150.349 6.11087 150.26 6.23215C149.939 6.67009 149.771 7.23773 149.84 7.84749C149.955 8.84129 150.724 9.64475 151.676 9.76771C152.264 9.84351 152.808 9.66833 153.229 9.33145C153.346 9.23881 153.515 9.28934 153.557 9.4342C153.701 9.92436 153.777 10.4448 153.777 10.9838L153.778 10.9855Z" fill="#282828"/>
<path d="M176.5 10.9855C176.5 14.0528 174.015 16.5121 171.033 16.2965C168.517 16.1145 166.478 13.9888 166.305 11.3628C166.1 8.25175 168.458 5.66113 171.398 5.66113C171.915 5.66113 172.414 5.74198 172.883 5.89021C173.024 5.93401 173.071 6.11087 172.982 6.23215C172.661 6.67009 172.493 7.23773 172.562 7.84749C172.677 8.84129 173.445 9.64475 174.398 9.76771C174.986 9.84351 175.53 9.66833 175.951 9.33145C176.067 9.23881 176.237 9.28934 176.279 9.4342C176.423 9.92436 176.499 10.4448 176.499 10.9838L176.5 10.9855Z" fill="#282828"/>
</g>
<defs>
<clipPath id="clip0_989_3929">
<rect width="200" height="22" fill="white"/>
</clipPath>
</defs>
</svg>
